PathFileType	4	(X/Y/Z)	19_coords_data.trc
DataRate	CameraRate	NumFrames	NumMarkers	Units	OrigDataRate	OrigDataStartFrame	OrigNumFrames
30.0	30.0	8	21	m	30.0	10	75
Frame#	Time	THUMB_TIP	THUMB_IP	THUMB_MCP	THUMB_CMC	INDEX_TIP	INDEX_DIP	INDEX_PIP	INDEX_MCP	MIDDLE_TIP	MIDDLE_DIP	MIDDLE_PIP	MIDDLE_MCP	RING_TIP	RING_DIP	RING_PIP	RING_MCP	PINKY_TIP	PINKY_DIP	PINKY_PIP	PINKY_MCP	WRIST
X1	Y1	Z1	X2	Y2	Z2	X3	Y3	Z3	X4	Y4	Z4	X5	Y5	Z5	X6	Y6	Z6	X7	Y7	Z7	X8	Y8	Z8	X9	Y9	Z9	X10	Y10	Z10	X11	Y11	Z11	X12	Y12	Z12	X13	Y13	Z13	X14	Y14	Z14	X15	Y15	Z15	X16	Y16	Z16	X17	Y17	Z17	X18	Y18	Z18	X19	Y19	Z19	X20	Y20	Z20	X21	Y21	Z21
8	0.2999999999999987	0.5471123688560031	-0.025592352320558454	-0.13443066975346496	0.5277273666474598	-0.019264915389297976	-0.12383891677033249	0.49944001593884946	-0.012465132827548908	-0.11277506811803173	0.47111114870687376	-0.017626953508136034	-0.07870571402062389	0.565094119296935	0.04290917563646168	-0.15715283551834813	0.552749860680806	0.04745794153978333	-0.1447058275254647	0.533762851219967	0.04772803585157959	-0.1282306840117727	0.503942910823385	0.028158215981087253	-0.10496204849138199	0.5120815980759278	-0.01413395161903952	-0.11522009314688464	0.5284343935179807	-0.01041792825225496	-0.1220594828541526	0.5477251257279379	0.010132174183610898	-0.11464527415199519	0.517712306066373	0.026319894930307952	-0.08577770975890275	0.5184398795704308	-0.022258253427184682	-0.10575993458530633	0.5351266919562929	-0.016794588968133684	-0.10984633435502325	0.5530318589261222	-0.0018937591142325072	-0.10104007269370374	0.5299775051638148	0.014663342442190808	-0.072246323464875	0.6048410344582988	0.008891855310230179	-0.07109801111237891	0.5881683389999551	0.005153965339560473	-0.07007360654362293	0.5674679687560136	0.0016707367380142113	-0.069656702150376	0.5318977620042757	-0.003988857504344634	-0.06775595607304558	0.4622830810018609	-0.023011742144276925	-0.051989820119430985
9	0.33333333333333187	0.5472178953169342	-0.025351119513311482	-0.1342898800034235	0.5276224380978127	-0.019195663686093045	-0.12398801512696811	0.4994276632044765	-0.01232186858086426	-0.11273521060696365	0.4710630864265921	-0.017545510200034253	-0.07870501295185182	0.5649347457079503	0.042651054409143185	-0.15689892857719437	0.5527395557982153	0.047490454827786244	-0.144414636580708	0.5337912967150744	0.048021867049668376	-0.12790128102320236	0.5039031813941628	0.02835521538415653	-0.10480237479733709	0.5120764059340421	-0.014072480145564836	-0.115245896485589	0.528450731815288	-0.010209964108833125	-0.12195129891950404	0.5476821051290255	0.01035795267562667	-0.11443301257119254	0.5176191387422718	0.026536771202545717	-0.08561267593016852	0.5185542631867892	-0.02244535061823616	-0.10609692202909332	0.5352026635311851	-0.016601629447452138	-0.10979579873031664	0.5530600378645945	-0.0017151923121836443	-0.10086897676871162	0.5299794069446031	0.014763989483270956	-0.07205158830813975	0.6048361866279612	0.009045373168933168	-0.07069492506167638	0.5881645729193621	0.005284802150317569	-0.06973815865068665	0.5674697631821102	0.0017611010654916548	-0.06939117219022868	0.5318773207470361	-0.0037979986539776744	-0.06761412328405471	0.4622830810018609	-0.023011742144276925	-0.051989820119430985
10	0.3666666666666651	0.5472986913928732	-0.024995195362159106	-0.13415369732635612	0.5275359434632949	-0.019096253430059718	-0.12402274088810884	0.4993619247116488	-0.012177155837631348	-0.11274573969593239	0.4710297348491164	-0.01744846033097025	-0.07869591786773594	0.5645916326834184	0.04233507301082784	-0.15656801940036313	0.5526320947620222	0.04759336307868334	-0.14402529887134796	0.5337647677309034	0.04849217982347209	-0.12743536420721802	0.5037910035600024	0.02868219902198066	-0.1045711079089749	0.5121177852899853	-0.013973440934685666	-0.11533866805377836	0.5285338686401055	-0.009922598120087556	-0.12182734125662402	0.5476476786848499	0.010719049562057825	-0.1142119491761323	0.5175267969129795	0.02678898832840082	-0.08539116725872063	0.5187100792390354	-0.02252747341437278	-0.10610180132281584	0.5352684631910012	-0.01636456285366772	-0.10968488021115129	0.5530406981030609	-0.001434084606293129	-0.10066221627330883	0.5299379821568051	0.014962395019904373	-0.0718153653918987	0.6047998988017399	0.009361473257562536	-0.07025942738419609	0.5881378933283132	0.005538244849752072	-0.0693873619364169	0.5674440471627216	0.0020031685682614375	-0.06910454475364855	0.5318421507234683	-0.0035292264641604287	-0.06743690386486899	0.4622830810018609	-0.023011742144276925	-0.051989820119430985
11	0.39999999999999825	0.5473104603888519	-0.024606746621589237	-0.13416399034768714	0.5274047476125447	-0.01889476040696536	-0.12420729348823062	0.4992500235091336	-0.012105471674645818	-0.11280391376246504	0.47099442724933704	-0.017343414049948658	-0.0786853669048338	0.5639583396555212	0.041963850484787235	-0.15637257308602381	0.5523165015900695	0.04772631352777301	-0.143752682986026	0.5335919843008285	0.04905526440933983	-0.1270303573451559	0.5036017285633402	0.02903464555912838	-0.1043721253829176	0.512164204968059	-0.013807296913485367	-0.11549406855726393	0.528593241520536	-0.009545931253812534	-0.12181289128558431	0.5475450210487691	0.011207520594320508	-0.11409707382400092	0.5173627743662299	0.027077753235394075	-0.08522986713349218	0.5186454689771984	-0.022125308780849284	-0.10603380542144539	0.5352331210956838	-0.016098075877162943	-0.10971106808827163	0.5529081728703198	-0.001124400053054031	-0.10056986706879753	0.5298408892461205	0.015214227682593173	-0.0716619009709087	0.6047010339972914	0.00988133907756783	-0.07005053710689899	0.5880587276798614	0.005962941452652526	-0.06922603696142156	0.5673815173379044	0.0023284668424680133	-0.06899027058894548	0.5317926791188162	-0.003301225916274686	-0.0673702074242106	0.4622830810018609	-0.023011742144276925	-0.051989820119430985
12	0.43333333333333146	0.5471065181159167	-0.02402546782223136	-0.1343515313096449	0.5270958739014454	-0.018580920565816617	-0.12445552083599877	0.4990093744539258	-0.011767565042664074	-0.1128992785704696	0.47090898546866133	-0.017214133091938644	-0.07868534814203955	0.5629735075973594	0.04152312613952458	-0.15639443593407187	0.551735734972812	0.047864298741771116	-0.14368609235721286	0.5332144264509282	0.04966921879307995	-0.12678303857259826	0.5032973388699723	0.029375070309581197	-0.10427189684226561	0.5120593491389049	-0.013514514104246644	-0.11574759848492906	0.5284774933064816	-0.009077289610905481	-0.12197299653552453	0.547313617496169	0.011751566249009304	-0.1141775658817651	0.5171030319751128	0.027377154361134526	-0.08520672813714396	0.5185787091859512	-0.022061261612114524	-0.10628868755585934	0.5350985739078112	-0.015794698455451117	-0.10986978456306186	0.5527091282350277	-0.0007335284610542336	-0.100747859673652	0.52968808301665	0.01545413206725288	-0.0717183581678786	0.6045344269815041	0.01043202988690728	-0.0703242182951303	0.5879140833852259	0.006425307338555397	-0.06948139378066352	0.5672514579811042	0.0027112831454323416	-0.06920944764290775	0.5316862105072508	-0.003045957864290405	-0.06752101669094898	0.4622830810018609	-0.023011742144276925	-0.051989820119430985
13	0.4666666666666647	0.5469446273384038	-0.023314046282500667	-0.1344607693582179	0.5268349535728541	-0.01800341482522183	-0.12469356839949236	0.49870628601284117	-0.011527239031687286	-0.11304637095162912	0.47080369482411827	-0.0170513791137491	-0.07868331984569904	0.5616871852265877	0.041126299063801275	-0.15642133074297912	0.5509272389906952	0.048115279097905805	-0.14363940150347881	0.5326691772356139	0.050483548100757725	-0.12652086430318712	0.5029156855040274	0.029734589041904846	-0.10420838972611551	0.5119012730447834	-0.012926765201565882	-0.11576605088579764	0.528263901196306	-0.00848184133351293	-0.12213056593269753	0.5470017795039746	0.012411838206416115	-0.11427209141089875	0.5167530971209997	0.02776317398497241	-0.08519458077281397	0.5183398060128295	-0.021435097783990553	-0.10630328395501917	0.5348648355839474	-0.015328979103931939	-0.11012934097742735	0.5524481619374303	-0.00021183826874837663	-0.10104756437171067	0.5294770690344945	0.015751876412268606	-0.07185493621959359	0.6042983581942689	0.011102226876929966	-0.07093653473398387	0.5877010777036278	0.007015870480320374	-0.0700244098988491	0.5670609759138814	0.003185579173193287	-0.06966791920968728	0.5315298473987394	-0.002725036291058247	-0.06780057289091926	0.4622830810018609	-0.023011742144276925	-0.051989820119430985
14	0.4999999999999978	0.5468813308538023	-0.022482988374224133	-0.13444424368489566	0.5265963206961186	-0.017466677514497375	-0.12488626334063598	0.49847807250431264	-0.0111571853906679	-0.11312299730762716	0.47072130459232475	-0.016941660827175964	-0.07868476740241175	0.5602636759506906	0.040453686764987395	-0.15646179507963653	0.5500810694800484	0.04818425286314976	-0.1436339786923484	0.5321440793836103	0.051225328087909916	-0.12628387550079262	0.502538573201118	0.030126234015744546	-0.10410329104022588	0.5117386269672274	-0.012275407640267022	-0.11585517029213772	0.5280770939264112	-0.007831212394525333	-0.12228196000718096	0.5467348439287247	0.013120607049199928	-0.1143877104007451	0.5164488464777823	0.028109765431193368	-0.08516047292607044	0.5180659394666216	-0.020872318141727186	-0.10623669374848234	0.5345302467102434	-0.014789960981921313	-0.11035148637608623	0.5521722550295359	0.00030078453243487235	-0.10133988711275026	0.5292692823285962	0.016047850566165756	-0.071976566680801	0.6040455286907487	0.011855215760302795	-0.07166032694468184	0.5874790956144071	0.00766752011222549	-0.07065211055611662	0.566861225807543	0.0037340804920559245	-0.07015863676585797	0.5313913072858611	-0.002460993452858884	-0.06806354968358665	0.4622830810018609	-0.023011742144276925	-0.051989820119430985
15	0.533333333333331	0.5469452085501634	-0.021733642512015927	-0.13419068533616196	0.5264797430174649	-0.016941450633199406	-0.12490631042308689	0.4982796420618626	-0.010920332222356555	-0.11318793002405361	0.47062961115625934	-0.016784445847790375	-0.07867738145832975	0.5588105851643553	0.03958696614358648	-0.15643909355863106	0.549245363803335	0.048083707385960794	-0.14362067210453558	0.5316762893025071	0.05189348760907164	-0.12604731076312017	0.5021956448967451	0.030528591042233044	-0.10395502943888141	0.5115999879409376	-0.011426871158249585	-0.11561523150748734	0.527871116923535	-0.007171486308502506	-0.12233401572877456	0.5464759564465443	0.013832588009179303	-0.11445376456651007	0.5161555561227158	0.028468346129347455	-0.08508344231000914	0.5176897837156966	-0.020212266691505554	-0.10610436127337583	0.5341346204190343	-0.014171263252038435	-0.11035566968901789	0.551922728296686	0.0008530298198636821	-0.10152199464277467	0.5290571518658833	0.016388731507791743	-0.07201727940010806	0.6037693578850821	0.012743743491467785	-0.07231161242446857	0.5872336962916369	0.008468240717661057	-0.07117496309497862	0.566646475259018	0.00439709926075782	-0.07053923013847949	0.5312454727110909	-0.00211098829461398	-0.0682376511210924	0.4622830810018609	-0.023011742144276925	-0.051989820119430985
